<?xml version="1.0" standalone="no"?>
<!DOCTYPE svg PUBLIC "-//W3C//DTD SVG 1.0//EN" "http://www.w3.org/TR/2001/REC-SVG-20010904/DTD/svg10.dtd">
<svg xmlns="http://www.w3.org/2000/svg" xmlns:xlink="http://www.w3.org/1999/xlink" id="body_1" width="1024" height="768">

<g transform="matrix(0.7111112 0 0 0.7111112 127.644455 -0)">
    <path d="M0 0L1081 0L1081 1080L0 1080z" stroke="none" fill="#9144B0" fill-rule="nonzero" />
    <path d="M429.57 173.16L502.94 173.16L502.94 1080L429.57 1080z" stroke="none" fill="#005347" fill-rule="nonzero" />
    <path d="M518.43 345.56L591.8 345.56L591.8 1080L518.43 1080z" stroke="none" fill="#000000" fill-rule="nonzero" />
    <path d="M607.29 244.41L680.66 244.41L680.66 1080L607.29 1080z" stroke="none" fill="#000000" fill-rule="nonzero" />
    <path transform="matrix(1 0 0 1 1 0)"  d="M334.8 610.34L333.8 610.34C 319.24 591.88 294.94998 577.34 262.40997 577.34C 193.40997 577.34 147.79997 635.61005 147.79997 700.69C 147.79997 765.76996 192.5 825.48 261 825.48C 292.56 825.48 324.13 811.39996 339.66998 787.6L339.66998 787.6L340.66998 787.6L340.66998 818.68L413.52 818.68L413.52 472.45L334.8 472.45L334.8 610.34zM283.32 759.92C 249.32 759.92 228.44 732.72 228.44 701.64C 228.44 670.56006 249.81 643.85004 283.32 643.85004C 315.37 643.85004 338.68 670.56006 338.68 701.64C 338.68 733.69 314.88 759.92 283.32 759.92z" stroke="none" fill="#FFFFFF" fill-rule="nonzero" />
    <path transform="matrix(1 0 0 1 1 0)"  d="M812.67 577.32C 741.76 577.32 683 625.4 683 701.64C 683 777.88 741.76 826.94 812.67 826.94C 884.06 826.94 943.79 777.89 943.79 701.64C 943.79 625.39 884.06 577.32 812.67 577.32zM813.14996 759.92004C 780.14996 759.92004 759.24 733.21 759.24 701.64C 759.24 670.56 779.64 643.85004 812.67 643.85004C 846.17 643.85004 867.06 670.56006 867.06 701.64C 867.06 733.21 846.66 759.92 813.15 759.92z" stroke="none" fill="#FFFFFF" fill-rule="nonzero" />
    <path transform="matrix(1 0 0 1 1 0)"  d="M617.44 676.87C 648.52 649.19 678.63 621.02 678.63 570.52C 678.63 518.52 647.27 487.07 606.37 473.52002L606.37 473.52002L606.37 686.75L617.44 676.87z" stroke="none" fill="#FFFFFF" fill-rule="nonzero" />
    <path transform="matrix(1 0 0 1 1 0)"  d="M549.94 535.55C 570.48 535.55 585.76 546.7 591.09 563.55L591.09 563.55L591.09 469.36C 579.3192 466.8508 567.31537 465.5971 555.28 465.62C 542.478 465.59003 529.71936 467.10428 517.28 470.13L517.28 470.13L517.28 550.13C 525.46783 540.6698 537.4305 535.32947 549.94 535.55z" stroke="none" fill="#FFFFFF" fill-rule="nonzero" />
    <path d="M429.52 751.18L429.52 818.68L502.99 818.68L502.99 685.29L429.52 751.18L429.52 751.18" stroke="none" fill="#FFFFFF" fill-rule="nonzero" />
    <path transform="matrix(1 0 0 1 1 0)"  d="M421.72 586.06L502 586.06L502 474.78C 459.24 490.56 426.27 527 421.72 586.06z" stroke="none" fill="#FFFFFF" fill-rule="nonzero" />
    <path transform="matrix(1 0 0 1 1 0)"  d="M536.34 749.24L591.09 700.38L591.09 591.61C 586.98004 605.67 577.09 617.79 564.99005 628.79L564.99005 628.79L517.27 671.58997L517.27 818.68L591.09 818.68L591.09 749.24L536.34 749.24z" stroke="none" fill="#FFFFFF" fill-rule="nonzero" />
    <path d="M607.37 749.24L681.08997 749.24L681.08997 818.69L607.37 818.69z" stroke="none" fill="#FFFFFF" fill-rule="nonzero" />
</g>
</svg>